<svg xmlns="http://www.w3.org/2000/svg" xmlns:xlink="http://www.w3.org/1999/xlink" width="173" zoomAndPan="magnify" viewBox="0 0 129.75 129.750003" height="173" preserveAspectRatio="xMidYMid meet" version="1.0"><defs><clipPath id="84fc240e55"><path d="M 2.507812 5 L 126.769531 5 L 126.769531 129.5 L 2.507812 129.5 Z M 2.507812 5 " clip-rule="nonzero"/></clipPath><clipPath id="feff037d14"><path d="M 9 59 L 122 59 L 122 129.5 L 9 129.5 Z M 9 59 " clip-rule="nonzero"/></clipPath></defs><g clip-path="url(#84fc240e55)"><path fill="#f3a61e" d="M 126.757812 67.265625 C 126.757812 76.023438 124.953125 84.363281 121.6875 91.914062 C 112.160156 114.019531 90.207031 129.488281 64.640625 129.488281 C 39.078125 129.488281 19.269531 115.492188 9.082031 95.101562 C 4.886719 86.726562 2.527344 77.273438 2.527344 67.265625 C 2.527344 32.90625 30.335938 5.054688 64.640625 5.054688 C 98.945312 5.054688 126.757812 32.90625 126.757812 67.265625 Z M 126.757812 67.265625 " fill-opacity="1" fill-rule="nonzero"/></g><g clip-path="url(#feff037d14)"><path fill="#3d3b3c" d="M 121.6875 91.914062 C 112.160156 114.019531 90.207031 129.488281 64.640625 129.488281 C 39.078125 129.488281 19.269531 115.492188 9.082031 95.101562 C 10.875 94.097656 12.898438 93.285156 15.15625 92.671875 C 22.832031 90.613281 34.199219 87.941406 34.199219 87.941406 L 37.695312 79.296875 L 37.136719 59.402344 C 37.136719 59.402344 44.882812 58.808594 49.128906 59.402344 C 53.371094 59.988281 69.367188 66.457031 69.367188 66.457031 L 78.34375 60.902344 C 78.34375 60.902344 85.289062 60.089844 88.742188 60.273438 C 92.191406 60.464844 96.722656 80.511719 96.722656 80.511719 L 100.035156 86.265625 C 100.035156 86.265625 105.839844 89.121094 113.675781 90.726562 C 116.796875 91.363281 119.394531 91.496094 121.6875 91.914062 Z M 121.6875 91.914062 " fill-opacity="1" fill-rule="nonzero"/></g><path fill="#56352c" d="M 46.023438 45.785156 C 46.023438 45.785156 41.351562 42.550781 40.398438 41.328125 C 39.445312 40.109375 37.390625 37.34375 36.109375 34.058594 C 34.828125 30.769531 31.070312 26.09375 32.449219 23.136719 C 33.828125 20.183594 41.066406 14.125 41.066406 14.125 C 41.066406 14.125 42.375 6.042969 48.261719 3.554688 C 54.144531 1.066406 72.90625 0.00390625 82.742188 5.050781 C 87.796875 7.640625 94.171875 8.523438 95.714844 10.371094 C 95.714844 10.371094 93.027344 10.890625 91.820312 12.925781 C 91.394531 13.644531 94.765625 15.707031 95.246094 16.175781 C 98.003906 18.847656 99.382812 18.476562 99.382812 18.476562 C 99.382812 18.476562 96.074219 19.859375 92.394531 19.304688 C 92.394531 19.304688 94.695312 21.148438 97.359375 26.121094 C 100.027344 31.09375 97.820312 33.152344 97.820312 33.152344 C 97.820312 33.152344 98.160156 30.453125 93.023438 29.4375 C 93.023438 29.4375 93.476562 32.117188 92.394531 35.019531 C 91.308594 37.921875 87.335938 42.425781 87.335938 42.425781 L 64.640625 56.976562 L 46.019531 45.78125 Z M 46.023438 45.785156 " fill-opacity="1" fill-rule="nonzero"/><path fill="#da8059" d="M 44.074219 43.5 C 44.074219 43.5 42.171875 38.609375 39.214844 39.078125 C 36.257812 39.546875 35.316406 44.984375 36.804688 50 C 38.289062 55.019531 41.554688 59.976562 45.050781 57.320312 C 47.707031 55.296875 44.074219 43.5 44.074219 43.5 Z M 44.074219 43.5 " fill-opacity="1" fill-rule="nonzero"/><path fill="#da8059" d="M 85.300781 41.535156 C 85.300781 41.535156 86.582031 36.761719 89.398438 36.894531 C 92.210938 37.027344 93.652344 42.027344 92.769531 46.875 C 91.894531 51.726562 89.339844 56.703125 85.796875 54.574219 C 83.101562 52.953125 85.300781 41.535156 85.300781 41.535156 Z M 85.300781 41.535156 " fill-opacity="1" fill-rule="nonzero"/><path fill="#fbc092" d="M 88.742188 86.359375 L 85.070312 97.082031 L 56.378906 103.273438 L 41.066406 88.394531 C 41.066406 88.394531 47.976562 85.15625 49.460938 81.550781 C 49.984375 80.257812 49.984375 77.675781 49.765625 74.878906 C 49.363281 69.851562 48.257812 64.152344 48.257812 64.152344 L 81.75 62.421875 C 81.75 62.421875 81.453125 67.703125 81.367188 72.835938 C 81.296875 76.738281 81.351562 80.5625 81.75 81.925781 C 82.675781 85.070312 88.742188 86.359375 88.742188 86.359375 Z M 88.742188 86.359375 " fill-opacity="1" fill-rule="nonzero"/><path fill="#da8059" d="M 81.75 62.421875 C 81.75 62.421875 81.453125 67.703125 81.367188 72.835938 C 76.269531 77.683594 67.578125 85.550781 60.84375 84.554688 C 56.144531 83.863281 51.617188 80.257812 49.765625 74.878906 C 49.363281 69.851562 48.257812 64.152344 48.257812 64.152344 Z M 81.75 62.421875 " fill-opacity="1" fill-rule="nonzero"/><path fill="#fbc092" d="M 42.378906 40.21875 C 42.378906 40.21875 44.394531 54.839844 44.246094 57.933594 C 44.105469 61.03125 44.460938 63.261719 46.402344 64.847656 C 48.34375 66.433594 58.195312 75.4375 61.933594 76.011719 C 65.667969 76.589844 69.050781 76.375 71.566406 74.859375 C 74.082031 73.347656 81.703125 67.082031 83.5 65.570312 C 85.296875 64.0625 85.875 62.480469 85.875 58.261719 C 85.875 54.046875 85.511719 43.53125 85.875 37.484375 C 86.050781 34.515625 84.582031 16.53125 84.582031 16.53125 L 59.488281 9.6875 L 45.324219 16.167969 L 39.214844 22.003906 L 42.375 40.222656 Z M 42.378906 40.21875 " fill-opacity="1" fill-rule="nonzero"/><path stroke-linecap="round" transform="matrix(0.29052, 0, 0, 0.291012, 2.526163, -3.783152)" fill="none" stroke-linejoin="round" d="M 206.624347 148.357223 C 206.624347 148.357223 210.792518 184.303943 209.663078 190.142936 " stroke="#da8059" stroke-width="6" stroke-opacity="1" stroke-miterlimit="4"/><path stroke-linecap="round" transform="matrix(0.29052, 0, 0, 0.291012, 2.526163, -3.783152)" fill="none" stroke-linejoin="round" d="M 145.903504 144.00818 C 145.903504 144.00818 167.241851 127.873768 177.998422 127.095235 C 188.754993 126.330126 192.035747 128.450955 192.035747 128.450955 " stroke="#7d2929" stroke-width="6" stroke-opacity="1" stroke-miterlimit="4"/><path stroke-linecap="round" transform="matrix(0.29052, 0, 0, 0.291012, 2.526163, -3.783152)" fill="none" stroke-linejoin="round" d="M 230.073671 128.437532 C 230.073671 128.437532 234.120831 127.135504 242.564739 126.93416 C 251.022093 126.719392 269.281373 139.766521 269.281373 139.766521 " stroke="#7d2929" stroke-width="6" stroke-opacity="1" stroke-miterlimit="4"/><path fill="#3d1119" d="M 56.46875 42.246094 C 56.507812 42.648438 56.496094 43.039062 56.433594 43.417969 C 56.375 43.796875 56.265625 44.140625 56.117188 44.441406 C 55.964844 44.742188 55.777344 44.980469 55.5625 45.152344 C 55.34375 45.328125 55.109375 45.429688 54.855469 45.453125 C 54.601562 45.476562 54.355469 45.421875 54.105469 45.292969 C 53.859375 45.160156 53.632812 44.960938 53.429688 44.695312 C 53.222656 44.425781 53.054688 44.113281 52.921875 43.75 C 52.792969 43.390625 52.707031 43.007812 52.667969 42.605469 C 52.632812 42.203125 52.644531 41.8125 52.703125 41.433594 C 52.765625 41.054688 52.871094 40.714844 53.023438 40.414062 C 53.175781 40.113281 53.359375 39.875 53.578125 39.699219 C 53.796875 39.523438 54.03125 39.421875 54.285156 39.398438 C 54.535156 39.375 54.785156 39.429688 55.03125 39.558594 C 55.28125 39.691406 55.507812 39.890625 55.710938 40.15625 C 55.917969 40.425781 56.085938 40.738281 56.214844 41.101562 C 56.347656 41.464844 56.433594 41.84375 56.46875 42.246094 Z M 56.46875 42.246094 " fill-opacity="1" fill-rule="nonzero"/><path fill="#3d1119" d="M 74 38.335938 C 74.246094 38.382812 74.472656 38.503906 74.675781 38.695312 C 74.875 38.890625 75.039062 39.144531 75.164062 39.460938 C 75.285156 39.773438 75.359375 40.121094 75.386719 40.503906 C 75.414062 40.890625 75.390625 41.28125 75.316406 41.675781 C 75.242188 42.070312 75.125 42.445312 74.960938 42.792969 C 74.796875 43.140625 74.601562 43.4375 74.375 43.6875 C 74.144531 43.933594 73.902344 44.113281 73.644531 44.222656 C 73.386719 44.328125 73.132812 44.359375 72.882812 44.3125 C 72.636719 44.265625 72.410156 44.148438 72.207031 43.953125 C 72.007812 43.757812 71.84375 43.503906 71.71875 43.191406 C 71.597656 42.878906 71.519531 42.527344 71.496094 42.144531 C 71.46875 41.761719 71.492188 41.371094 71.566406 40.972656 C 71.640625 40.578125 71.757812 40.203125 71.921875 39.855469 C 72.085938 39.507812 72.28125 39.210938 72.507812 38.960938 C 72.738281 38.714844 72.980469 38.539062 73.238281 38.429688 C 73.496094 38.320312 73.75 38.289062 74 38.335938 Z M 74 38.335938 " fill-opacity="1" fill-rule="nonzero"/><path stroke-linecap="round" transform="matrix(0.29052, 0, 0, 0.291012, 2.526163, -3.783152)" fill="none" stroke-linejoin="round" d="M 174.27396 217.109687 C 174.27396 217.109687 186.563342 230.465544 203.155353 230.465544 C 229.643409 230.465544 244.124442 217.109687 244.124442 217.109687 " stroke="#7d2929" stroke-width="3" stroke-opacity="1" stroke-miterlimit="4"/><path fill="#3d3b3c" d="M 66.167969 100.066406 C 66.167969 100.066406 58.089844 97.953125 52.363281 92.8125 C 46.632812 87.671875 41.074219 81.765625 38.679688 74.570312 C 36.289062 67.378906 37.785156 65.390625 40.652344 64.53125 L 37.128906 59.398438 C 37.128906 59.398438 29.28125 59.441406 28.171875 62.867188 C 27.066406 66.296875 33.355469 76.675781 33.207031 78.238281 C 33.054688 79.800781 30.832031 79.042969 28.042969 80.609375 C 25.257812 82.171875 25.40625 87.5625 28.375 91.59375 C 31.34375 95.625 34.710938 103.71875 40.367188 105.507812 C 46.023438 107.296875 63.300781 103.273438 63.300781 103.273438 C 63.300781 103.273438 76.042969 107.894531 84.453125 105.210938 C 92.863281 102.527344 101.101562 91.6875 103.285156 89.703125 C 105.464844 87.714844 107.453125 86.816406 105.464844 84.035156 C 103.480469 81.253906 100.105469 78.769531 100.105469 78.769531 C 100.105469 78.769531 103.28125 66.195312 101.199219 63.285156 C 99.117188 60.375 88.738281 60.277344 88.738281 60.277344 C 88.738281 60.277344 90.382812 65.214844 90.085938 67.269531 C 89.789062 69.324219 91.519531 68.84375 91.871094 71.511719 C 92.300781 74.753906 70.355469 98.902344 66.167969 100.066406 Z M 66.167969 100.066406 " fill-opacity="1" fill-rule="nonzero"/><path fill="#56352c" d="M 42.675781 42.429688 C 42.675781 42.429688 43.394531 39.671875 43.632812 36.890625 C 43.871094 34.109375 42.261719 26.765625 43.632812 25.089844 C 44.382812 24.175781 47.871094 21.453125 51.617188 20.109375 C 54.695312 19.003906 58.0625 19.210938 59.253906 18.820312 C 60.933594 18.269531 67.621094 16.914062 72.449219 18.46875 C 77.277344 20.023438 80.597656 22.644531 81.195312 26.824219 C 81.792969 31.003906 84.605469 38.316406 85.894531 38.125 C 87.179688 37.933594 87.316406 14.109375 87.316406 14.109375 L 71.566406 7.878906 L 50.960938 8.5625 L 36.109375 21.898438 Z M 42.675781 42.429688 " fill-opacity="1" fill-rule="nonzero"/></svg>