<svg xmlns="http://www.w3.org/2000/svg" xmlns:xlink="http://www.w3.org/1999/xlink" width="1200" zoomAndPan="magnify" viewBox="0 0 900 562.499983" height="750" preserveAspectRatio="xMidYMid meet" version="1.0"><defs><clipPath id="c47688c72b"><path d="M 392.726562 138.421875 L 658 138.421875 L 658 355 L 392.726562 355 Z M 392.726562 138.421875 " clip-rule="nonzero"/></clipPath></defs><path fill="#ffffff" d="M 494.523438 261.363281 C 494.519531 260.871094 494.421875 260.394531 494.230469 259.941406 C 494.039062 259.484375 493.769531 259.085938 493.417969 258.738281 C 493.066406 258.390625 492.660156 258.121094 492.203125 257.933594 C 491.746094 257.75 491.273438 257.65625 490.777344 257.660156 C 490.285156 257.660156 489.808594 257.757812 489.355469 257.949219 C 488.898438 258.136719 488.496094 258.410156 488.148438 258.757812 C 487.800781 259.109375 487.53125 259.511719 487.34375 259.96875 C 487.15625 260.425781 487.0625 260.902344 487.066406 261.394531 C 487.066406 261.890625 487.160156 262.363281 487.351562 262.820312 C 487.542969 263.277344 487.8125 263.679688 488.160156 264.027344 C 488.511719 264.375 488.914062 264.644531 489.371094 264.832031 C 489.824219 265.023438 490.300781 265.117188 490.792969 265.117188 C 491.292969 265.121094 491.769531 265.027344 492.230469 264.835938 C 492.691406 264.648438 493.097656 264.375 493.445312 264.023438 C 493.796875 263.671875 494.066406 263.261719 494.253906 262.800781 C 494.441406 262.339844 494.53125 261.859375 494.523438 261.363281 Z M 494.523438 261.363281 " fill-opacity="1" fill-rule="nonzero"/><path fill="#ffffff" d="M 422.488281 203.765625 L 413.226562 203.765625 C 412.761719 203.765625 412.3125 203.855469 411.882812 204.03125 C 411.453125 204.210938 411.070312 204.464844 410.742188 204.792969 C 410.414062 205.125 410.160156 205.503906 409.980469 205.933594 C 409.800781 206.363281 409.714844 206.8125 409.714844 207.277344 L 409.714844 228.691406 C 409.699219 229.164062 409.78125 229.621094 409.953125 230.066406 C 410.125 230.507812 410.375 230.898438 410.707031 231.238281 C 411.039062 231.578125 411.421875 231.839844 411.859375 232.023438 C 412.296875 232.207031 412.75 232.300781 413.226562 232.300781 L 422.488281 232.300781 C 422.953125 232.304688 423.402344 232.214844 423.832031 232.042969 C 424.261719 231.867188 424.640625 231.613281 424.972656 231.285156 C 425.300781 230.957031 425.554688 230.582031 425.734375 230.152344 C 425.914062 229.722656 426 229.277344 426 228.8125 L 426 207.277344 C 426 206.8125 425.914062 206.363281 425.734375 205.933594 C 425.554688 205.503906 425.300781 205.125 424.972656 204.792969 C 424.644531 204.464844 424.265625 204.210938 423.832031 204.03125 C 423.402344 203.855469 422.953125 203.765625 422.488281 203.765625 Z M 421.191406 227.488281 L 414.523438 227.488281 L 414.523438 208.578125 L 421.191406 208.578125 Z M 421.191406 227.488281 " fill-opacity="1" fill-rule="nonzero"/><path fill="#ffffff" d="M 445.417969 192.984375 L 436.15625 192.984375 C 435.691406 192.984375 435.246094 193.074219 434.816406 193.25 C 434.386719 193.429688 434.007812 193.679688 433.679688 194.007812 C 433.351562 194.332031 433.097656 194.710938 432.917969 195.136719 C 432.738281 195.566406 432.644531 196.011719 432.640625 196.476562 L 432.640625 228.691406 C 432.628906 229.164062 432.710938 229.621094 432.882812 230.066406 C 433.054688 230.507812 433.304688 230.898438 433.636719 231.238281 C 433.96875 231.578125 434.351562 231.839844 434.789062 232.023438 C 435.226562 232.207031 435.679688 232.300781 436.15625 232.300781 L 445.417969 232.300781 C 445.882812 232.304688 446.332031 232.214844 446.761719 232.042969 C 447.191406 231.867188 447.570312 231.613281 447.898438 231.285156 C 448.230469 230.957031 448.484375 230.582031 448.664062 230.152344 C 448.839844 229.722656 448.929688 229.277344 448.929688 228.8125 L 448.929688 196.476562 C 448.929688 196.011719 448.839844 195.5625 448.664062 195.132812 C 448.484375 194.707031 448.230469 194.328125 447.898438 194 C 447.570312 193.671875 447.191406 193.421875 446.761719 193.246094 C 446.332031 193.070312 445.882812 192.984375 445.417969 192.984375 Z M 444.117188 227.488281 L 437.453125 227.488281 L 437.453125 197.796875 L 444.117188 197.796875 Z M 444.117188 227.488281 " fill-opacity="1" fill-rule="nonzero"/><path fill="#ffffff" d="M 468.347656 182.183594 L 459.082031 182.183594 C 458.617188 182.1875 458.171875 182.277344 457.742188 182.457031 C 457.3125 182.636719 456.9375 182.890625 456.605469 183.21875 C 456.277344 183.546875 456.023438 183.925781 455.84375 184.355469 C 455.664062 184.785156 455.574219 185.230469 455.570312 185.695312 L 455.570312 228.691406 C 455.558594 229.164062 455.636719 229.621094 455.808594 230.066406 C 455.984375 230.507812 456.234375 230.898438 456.566406 231.238281 C 456.894531 231.578125 457.28125 231.839844 457.71875 232.023438 C 458.152344 232.207031 458.609375 232.300781 459.082031 232.300781 L 468.347656 232.300781 C 468.808594 232.300781 469.257812 232.210938 469.683594 232.035156 C 470.113281 231.859375 470.492188 231.605469 470.820312 231.28125 C 471.152344 230.953125 471.40625 230.574219 471.585938 230.148438 C 471.765625 229.71875 471.855469 229.273438 471.859375 228.8125 L 471.859375 185.695312 C 471.855469 185.230469 471.765625 184.785156 471.585938 184.355469 C 471.40625 183.925781 471.152344 183.546875 470.824219 183.21875 C 470.496094 182.890625 470.117188 182.636719 469.6875 182.457031 C 469.257812 182.277344 468.8125 182.1875 468.347656 182.183594 Z M 467.046875 227.488281 L 460.382812 227.488281 L 460.382812 186.996094 L 467.046875 186.996094 Z M 467.046875 227.488281 " fill-opacity="1" fill-rule="nonzero"/><path fill="#ffffff" d="M 483.121094 202.417969 L 503.066406 202.417969 L 503.066406 207.230469 L 483.121094 207.230469 Z M 483.121094 202.417969 " fill-opacity="1" fill-rule="nonzero"/><path fill="#ffffff" d="M 622.59375 200.539062 L 618.359375 202.800781 C 618.832031 203.703125 619.273438 204.613281 619.6875 205.539062 C 620.105469 206.46875 620.492188 207.40625 620.847656 208.355469 C 621.203125 209.308594 621.53125 210.269531 621.828125 211.238281 C 622.125 212.210938 622.390625 213.1875 622.625 214.175781 C 622.863281 215.164062 623.066406 216.15625 623.242188 217.15625 C 623.414062 218.15625 623.558594 219.164062 623.667969 220.171875 C 623.78125 221.179688 623.859375 222.191406 623.910156 223.207031 C 623.957031 224.222656 623.976562 225.234375 623.960938 226.25 C 623.945312 227.265625 623.898438 228.28125 623.820312 229.292969 C 623.742188 230.304688 623.632812 231.3125 623.492188 232.320312 C 623.351562 233.324219 623.179688 234.324219 622.976562 235.320312 C 622.773438 236.3125 622.542969 237.300781 622.277344 238.28125 C 622.011719 239.261719 621.71875 240.234375 621.390625 241.195312 C 621.066406 242.15625 620.714844 243.109375 620.328125 244.046875 C 619.945312 244.988281 619.53125 245.914062 619.089844 246.828125 C 618.648438 247.742188 618.179688 248.640625 617.679688 249.527344 C 617.183594 250.410156 616.65625 251.28125 616.105469 252.132812 C 615.554688 252.984375 614.976562 253.816406 614.371094 254.632812 C 613.769531 255.449219 613.140625 256.246094 612.484375 257.023438 C 611.832031 257.800781 611.15625 258.558594 610.453125 259.292969 C 609.753906 260.027344 609.03125 260.738281 608.285156 261.429688 C 607.542969 262.117188 606.777344 262.785156 605.988281 263.425781 C 605.203125 264.070312 604.398438 264.6875 603.574219 265.277344 C 602.746094 265.871094 601.90625 266.4375 601.046875 266.976562 C 600.183594 267.515625 599.308594 268.027344 598.417969 268.511719 C 597.527344 268.996094 596.621094 269.453125 595.699219 269.882812 C 594.777344 270.3125 593.847656 270.710938 592.902344 271.082031 C 591.957031 271.453125 591 271.792969 590.03125 272.101562 C 589.066406 272.414062 588.089844 272.695312 587.105469 272.945312 C 586.125 273.195312 585.132812 273.414062 584.132812 273.601562 C 583.136719 273.792969 582.132812 273.949219 581.128906 274.074219 C 580.121094 274.203125 579.109375 274.296875 578.097656 274.359375 C 577.082031 274.421875 576.070312 274.453125 575.054688 274.453125 C 574.039062 274.453125 573.023438 274.421875 572.011719 274.359375 C 570.996094 274.296875 569.988281 274.203125 568.980469 274.074219 C 567.972656 273.949219 566.96875 273.792969 565.972656 273.605469 C 564.972656 273.414062 563.984375 273.195312 563 272.945312 C 562.015625 272.695312 561.039062 272.414062 560.074219 272.105469 C 559.105469 271.792969 558.152344 271.453125 557.207031 271.082031 C 556.261719 270.710938 555.328125 270.3125 554.40625 269.882812 C 553.488281 269.457031 552.582031 269 551.6875 268.511719 C 550.796875 268.027344 549.921875 267.515625 549.058594 266.976562 C 548.199219 266.4375 547.359375 265.871094 546.53125 265.28125 C 545.707031 264.6875 544.902344 264.070312 544.117188 263.429688 C 543.328125 262.785156 542.5625 262.121094 541.820312 261.429688 C 541.074219 260.742188 540.351562 260.027344 539.652344 259.292969 C 538.949219 258.558594 538.273438 257.804688 537.621094 257.027344 C 536.964844 256.25 536.335938 255.453125 535.734375 254.636719 C 535.128906 253.820312 534.550781 252.984375 534 252.132812 C 533.449219 251.28125 532.921875 250.414062 532.425781 249.527344 C 531.925781 248.644531 531.457031 247.746094 531.015625 246.832031 C 530.574219 245.917969 530.160156 244.988281 529.777344 244.050781 C 529.390625 243.109375 529.035156 242.160156 528.710938 241.195312 C 528.386719 240.234375 528.09375 239.265625 527.828125 238.285156 C 527.5625 237.304688 527.328125 236.316406 527.125 235.320312 C 526.921875 234.328125 526.75 233.328125 526.609375 232.320312 C 526.46875 231.316406 526.359375 230.308594 526.28125 229.292969 C 526.203125 228.28125 526.160156 227.269531 526.144531 226.253906 C 526.128906 225.238281 526.144531 224.222656 526.195312 223.210938 C 526.242188 222.195312 526.324219 221.183594 526.433594 220.175781 C 526.546875 219.164062 526.6875 218.160156 526.863281 217.160156 C 527.035156 216.160156 527.242188 215.167969 527.476562 214.179688 C 527.710938 213.191406 527.980469 212.210938 528.277344 211.242188 C 528.574219 210.269531 528.898438 209.308594 529.253906 208.359375 C 529.613281 207.410156 530 206.46875 530.414062 205.542969 C 530.828125 204.617188 531.273438 203.703125 531.742188 202.804688 C 532.214844 201.90625 532.714844 201.023438 533.242188 200.15625 C 533.769531 199.285156 534.324219 198.4375 534.902344 197.601562 C 535.480469 196.769531 536.085938 195.953125 536.71875 195.160156 C 537.347656 194.363281 538.003906 193.589844 538.683594 192.832031 C 539.363281 192.078125 540.0625 191.34375 540.789062 190.632812 C 541.511719 189.921875 542.257812 189.234375 543.027344 188.570312 C 543.792969 187.90625 544.582031 187.265625 545.386719 186.648438 C 546.195312 186.035156 547.019531 185.445312 547.863281 184.878906 C 548.707031 184.316406 549.570312 183.777344 550.445312 183.265625 C 551.324219 182.757812 552.214844 182.273438 553.125 181.816406 C 554.03125 181.363281 554.953125 180.9375 555.886719 180.539062 C 556.820312 180.140625 557.765625 179.773438 558.722656 179.433594 C 559.679688 179.09375 560.648438 178.785156 561.625 178.507812 C 562.597656 178.226562 563.582031 177.980469 564.574219 177.761719 C 565.566406 177.546875 566.566406 177.359375 567.566406 177.203125 C 568.570312 177.046875 569.578125 176.925781 570.589844 176.832031 C 571.601562 176.738281 572.613281 176.679688 573.628906 176.648438 C 574.644531 176.617188 575.65625 176.621094 576.671875 176.65625 C 577.6875 176.6875 578.699219 176.753906 579.710938 176.851562 C 580.722656 176.945312 581.726562 177.074219 582.730469 177.234375 C 583.734375 177.394531 584.730469 177.582031 585.722656 177.804688 C 586.710938 178.027344 587.695312 178.277344 588.671875 178.5625 C 589.644531 178.84375 590.609375 179.15625 591.566406 179.5 C 592.523438 179.84375 593.464844 180.214844 594.398438 180.617188 C 595.332031 181.019531 596.25 181.449219 597.15625 181.90625 C 598.0625 182.367188 598.953125 182.851562 599.828125 183.367188 C 600.703125 183.878906 601.5625 184.421875 602.402344 184.988281 C 603.246094 185.558594 604.066406 186.152344 604.871094 186.769531 C 605.675781 187.386719 606.460938 188.03125 607.226562 188.699219 C 607.992188 189.367188 608.734375 190.058594 609.457031 190.773438 L 612.824219 187.355469 C 612.027344 186.570312 611.210938 185.808594 610.367188 185.074219 C 609.523438 184.339844 608.65625 183.632812 607.769531 182.953125 C 606.882812 182.273438 605.972656 181.617188 605.046875 180.996094 C 604.117188 180.371094 603.171875 179.777344 602.207031 179.210938 C 601.242188 178.644531 600.257812 178.109375 599.261719 177.605469 C 598.261719 177.101562 597.25 176.628906 596.21875 176.1875 C 595.191406 175.746094 594.152344 175.339844 593.097656 174.964844 C 592.042969 174.585938 590.980469 174.242188 589.90625 173.933594 C 588.832031 173.625 587.746094 173.347656 586.65625 173.105469 C 585.5625 172.863281 584.464844 172.65625 583.359375 172.480469 C 582.253906 172.308594 581.144531 172.167969 580.03125 172.0625 C 578.917969 171.957031 577.804688 171.886719 576.683594 171.851562 C 575.566406 171.816406 574.449219 171.816406 573.332031 171.851562 C 572.214844 171.886719 571.097656 171.953125 569.984375 172.058594 C 568.871094 172.164062 567.761719 172.300781 566.65625 172.472656 C 565.550781 172.644531 564.453125 172.851562 563.359375 173.09375 C 562.265625 173.335938 561.183594 173.609375 560.109375 173.921875 C 559.035156 174.230469 557.96875 174.570312 556.914062 174.945312 C 555.863281 175.320312 554.820312 175.730469 553.792969 176.167969 C 552.765625 176.609375 551.75 177.082031 550.75 177.582031 C 549.753906 178.085938 548.769531 178.621094 547.804688 179.183594 C 546.839844 179.75 545.890625 180.34375 544.960938 180.964844 C 544.035156 181.589844 543.125 182.242188 542.238281 182.921875 C 541.347656 183.601562 540.480469 184.308594 539.636719 185.042969 C 538.792969 185.777344 537.972656 186.535156 537.175781 187.320312 C 536.378906 188.105469 535.609375 188.914062 534.863281 189.746094 C 534.117188 190.582031 533.394531 191.4375 532.703125 192.3125 C 532.007812 193.191406 531.34375 194.089844 530.707031 195.007812 C 530.070312 195.929688 529.460938 196.867188 528.882812 197.824219 C 528.304688 198.78125 527.757812 199.757812 527.238281 200.746094 C 526.71875 201.738281 526.234375 202.746094 525.777344 203.765625 C 525.324219 204.789062 524.898438 205.824219 524.507812 206.871094 C 524.117188 207.917969 523.761719 208.980469 523.433594 210.050781 C 523.109375 211.121094 522.820312 212.199219 522.5625 213.289062 C 522.304688 214.375 522.082031 215.472656 521.890625 216.574219 C 521.703125 217.675781 521.546875 218.785156 521.425781 219.894531 C 521.304688 221.007812 521.21875 222.121094 521.167969 223.238281 C 521.117188 224.355469 521.101562 225.476562 521.121094 226.59375 C 521.140625 227.710938 521.191406 228.828125 521.28125 229.941406 C 521.367188 231.058594 521.492188 232.167969 521.648438 233.277344 C 521.808594 234.382812 522 235.484375 522.222656 236.582031 C 522.449219 237.675781 522.710938 238.765625 523.003906 239.84375 C 523.296875 240.921875 523.625 241.992188 523.984375 243.050781 C 524.347656 244.109375 524.738281 245.15625 525.164062 246.191406 C 525.589844 247.226562 526.046875 248.246094 526.535156 249.25 C 527.027344 250.257812 527.546875 251.246094 528.097656 252.21875 C 528.648438 253.195312 529.226562 254.148438 529.835938 255.085938 C 530.449219 256.023438 531.085938 256.941406 531.753906 257.839844 C 532.421875 258.738281 533.117188 259.613281 533.839844 260.46875 C 534.558594 261.320312 535.308594 262.152344 536.082031 262.960938 C 536.855469 263.769531 537.652344 264.550781 538.476562 265.308594 C 539.300781 266.066406 540.144531 266.796875 541.011719 267.503906 C 541.878906 268.210938 542.769531 268.886719 543.679688 269.535156 C 544.589844 270.1875 545.519531 270.808594 546.46875 271.398438 C 547.417969 271.992188 548.386719 272.554688 549.367188 273.085938 C 550.351562 273.617188 551.351562 274.117188 552.367188 274.589844 C 553.382812 275.058594 554.410156 275.496094 555.453125 275.902344 C 556.496094 276.304688 557.550781 276.679688 558.617188 277.019531 C 559.683594 277.359375 560.757812 277.664062 561.84375 277.9375 C 562.925781 278.210938 564.019531 278.449219 565.117188 278.652344 C 566.21875 278.859375 567.324219 279.03125 568.433594 279.164062 C 569.542969 279.300781 570.65625 279.402344 571.773438 279.46875 C 572.890625 279.535156 574.007812 279.566406 575.125 279.566406 C 576.246094 279.5625 577.363281 279.523438 578.480469 279.453125 C 579.59375 279.378906 580.707031 279.273438 581.816406 279.128906 C 582.925781 278.988281 584.03125 278.8125 585.128906 278.601562 C 586.226562 278.390625 587.320312 278.144531 588.402344 277.867188 C 589.484375 277.589844 590.558594 277.277344 591.621094 276.929688 C 592.6875 276.585938 593.738281 276.207031 594.777344 275.796875 C 595.820312 275.382812 596.84375 274.941406 597.859375 274.464844 C 598.871094 273.992188 599.867188 273.484375 600.847656 272.949219 C 601.832031 272.410156 602.792969 271.84375 603.738281 271.246094 C 604.683594 270.648438 605.613281 270.023438 606.519531 269.371094 C 607.425781 268.714844 608.3125 268.03125 609.175781 267.320312 C 610.039062 266.613281 610.882812 265.875 611.699219 265.113281 C 612.519531 264.351562 613.3125 263.5625 614.082031 262.753906 C 614.851562 261.941406 615.59375 261.105469 616.3125 260.246094 C 617.027344 259.390625 617.71875 258.507812 618.382812 257.609375 C 619.042969 256.707031 619.679688 255.785156 620.285156 254.84375 C 620.890625 253.90625 621.464844 252.945312 622.011719 251.96875 C 622.554688 250.992188 623.070312 250 623.554688 248.992188 C 624.039062 247.984375 624.488281 246.960938 624.910156 245.925781 C 625.328125 244.886719 625.71875 243.839844 626.070312 242.777344 C 626.425781 241.71875 626.746094 240.648438 627.035156 239.566406 C 627.324219 238.484375 627.578125 237.394531 627.796875 236.300781 C 628.019531 235.203125 628.203125 234.101562 628.355469 232.992188 C 628.507812 231.882812 628.625 230.773438 628.707031 229.65625 C 628.789062 228.539062 628.835938 227.425781 628.847656 226.304688 C 628.863281 225.1875 628.839844 224.070312 628.78125 222.953125 C 628.726562 221.835938 628.632812 220.722656 628.507812 219.609375 C 628.382812 218.496094 628.21875 217.390625 628.023438 216.289062 C 627.828125 215.1875 627.601562 214.09375 627.335938 213.007812 C 627.074219 211.921875 626.777344 210.84375 626.445312 209.773438 C 626.113281 208.707031 625.75 207.648438 625.355469 206.601562 C 624.957031 205.554688 624.53125 204.523438 624.070312 203.503906 C 623.609375 202.484375 623.117188 201.480469 622.59375 200.492188 Z M 622.59375 200.539062 " fill-opacity="1" fill-rule="nonzero"/><g clip-path="url(#c47688c72b)"><path fill="#ffffff" d="M 654.710938 327.695312 L 630.4375 288.261719 C 629.808594 287.246094 629.042969 286.34375 628.136719 285.5625 C 627.234375 284.78125 626.234375 284.152344 625.136719 283.675781 C 624.039062 283.203125 622.894531 282.902344 621.707031 282.777344 C 620.519531 282.652344 619.339844 282.707031 618.167969 282.945312 L 615.0625 278.011719 C 617.523438 276.136719 619.839844 274.09375 622.015625 271.890625 C 624.1875 269.683594 626.195312 267.339844 628.035156 264.847656 C 629.878906 262.359375 631.535156 259.753906 633.007812 257.03125 C 634.480469 254.308594 635.753906 251.496094 636.828125 248.59375 C 637.902344 245.691406 638.769531 242.726562 639.425781 239.699219 C 640.082031 236.675781 640.519531 233.617188 640.746094 230.53125 C 640.96875 227.441406 640.972656 224.355469 640.761719 221.265625 C 640.546875 218.175781 640.121094 215.121094 639.472656 212.09375 C 638.828125 209.0625 637.972656 206.097656 636.910156 203.191406 C 635.84375 200.28125 634.578125 197.464844 633.117188 194.738281 C 631.652344 192.007812 630.003906 189.398438 628.171875 186.902344 C 626.339844 184.40625 624.339844 182.054688 622.175781 179.839844 C 620.011719 177.628906 617.699219 175.578125 615.246094 173.695312 C 612.789062 171.808594 610.214844 170.105469 607.519531 168.582031 C 604.824219 167.0625 602.03125 165.738281 599.148438 164.609375 C 596.265625 163.480469 593.316406 162.5625 590.304688 161.851562 L 588.863281 161.539062 L 588.863281 155.308594 C 588.859375 154.757812 588.828125 154.210938 588.769531 153.660156 C 588.710938 153.113281 588.628906 152.570312 588.519531 152.03125 C 588.40625 151.492188 588.273438 150.960938 588.109375 150.433594 C 587.949219 149.90625 587.761719 149.390625 587.546875 148.882812 C 587.335938 148.375 587.097656 147.878906 586.835938 147.394531 C 586.578125 146.910156 586.292969 146.4375 585.988281 145.980469 C 585.679688 145.523438 585.351562 145.082031 585.003906 144.65625 C 584.652344 144.230469 584.28125 143.824219 583.894531 143.433594 C 583.503906 143.046875 583.097656 142.675781 582.671875 142.328125 C 582.246094 141.976562 581.804688 141.648438 581.347656 141.34375 C 580.890625 141.035156 580.421875 140.75 579.933594 140.492188 C 579.449219 140.230469 578.953125 139.992188 578.445312 139.78125 C 577.9375 139.570312 577.421875 139.382812 576.894531 139.21875 C 576.371094 139.058594 575.835938 138.921875 575.296875 138.808594 C 574.757812 138.699219 574.214844 138.617188 573.667969 138.558594 C 573.121094 138.5 572.570312 138.472656 572.019531 138.46875 L 409.6875 138.46875 C 409.140625 138.472656 408.589844 138.5 408.042969 138.558594 C 407.496094 138.617188 406.953125 138.699219 406.410156 138.808594 C 405.871094 138.921875 405.339844 139.058594 404.8125 139.21875 C 404.289062 139.382812 403.769531 139.570312 403.261719 139.78125 C 402.753906 139.992188 402.257812 140.230469 401.773438 140.492188 C 401.289062 140.75 400.816406 141.035156 400.359375 141.34375 C 399.902344 141.648438 399.460938 141.976562 399.035156 142.328125 C 398.613281 142.675781 398.203125 143.046875 397.816406 143.433594 C 397.425781 143.824219 397.054688 144.230469 396.707031 144.65625 C 396.355469 145.082031 396.027344 145.523438 395.722656 145.980469 C 395.414062 146.4375 395.132812 146.910156 394.871094 147.394531 C 394.609375 147.878906 394.375 148.375 394.160156 148.882812 C 393.949219 149.390625 393.761719 149.90625 393.597656 150.433594 C 393.4375 150.960938 393.300781 151.492188 393.191406 152.03125 C 393.082031 152.570312 392.996094 153.113281 392.941406 153.660156 C 392.882812 154.210938 392.851562 154.757812 392.847656 155.308594 L 392.847656 259.101562 C 392.847656 259.65625 392.875 260.210938 392.929688 260.765625 C 392.984375 261.320312 393.066406 261.867188 393.171875 262.414062 C 393.28125 262.957031 393.417969 263.496094 393.578125 264.027344 C 393.738281 264.558594 393.925781 265.082031 394.136719 265.597656 C 394.351562 266.109375 394.589844 266.613281 394.851562 267.101562 C 395.113281 267.59375 395.398438 268.070312 395.707031 268.53125 C 396.015625 268.992188 396.34375 269.441406 396.695312 269.871094 C 397.050781 270.300781 397.421875 270.710938 397.8125 271.105469 C 398.207031 271.496094 398.617188 271.871094 399.046875 272.222656 C 399.476562 272.578125 399.921875 272.90625 400.382812 273.21875 C 400.847656 273.527344 401.320312 273.8125 401.8125 274.074219 C 402.300781 274.335938 402.804688 274.574219 403.316406 274.789062 C 403.828125 275 404.351562 275.1875 404.882812 275.351562 C 405.414062 275.511719 405.953125 275.648438 406.5 275.757812 C 407.042969 275.867188 407.59375 275.949219 408.144531 276.003906 C 408.699219 276.058594 409.253906 276.085938 409.808594 276.089844 L 433.964844 276.089844 L 433.964844 271.277344 L 409.6875 271.277344 C 408.890625 271.273438 408.101562 271.195312 407.316406 271.039062 C 406.535156 270.882812 405.773438 270.648438 405.039062 270.34375 C 404.300781 270.035156 403.601562 269.660156 402.9375 269.214844 C 402.273438 268.773438 401.660156 268.265625 401.097656 267.703125 C 400.53125 267.136719 400.027344 266.523438 399.585938 265.859375 C 399.144531 265.195312 398.769531 264.492188 398.464844 263.753906 C 398.160156 263.019531 397.929688 262.257812 397.773438 261.472656 C 397.617188 260.691406 397.539062 259.902344 397.539062 259.101562 L 397.539062 251.546875 L 514.636719 251.546875 C 517.777344 258.964844 522.136719 265.574219 527.726562 271.371094 L 446.523438 271.371094 L 446.523438 276.183594 L 477.632812 276.183594 L 470.246094 289.464844 L 451.890625 289.464844 C 451.171875 289.460938 450.457031 289.527344 449.75 289.660156 C 449.042969 289.796875 448.359375 290 447.691406 290.269531 C 447.023438 290.542969 446.390625 290.875 445.789062 291.269531 C 445.1875 291.664062 444.632812 292.113281 444.121094 292.617188 C 443.605469 293.125 443.148438 293.671875 442.742188 294.269531 C 442.339844 294.863281 441.996094 295.492188 441.714844 296.15625 C 441.433594 296.816406 441.222656 297.5 441.074219 298.203125 C 440.929688 298.910156 440.851562 299.621094 440.847656 300.339844 L 440.847656 301.878906 C 440.847656 302.195312 440.878906 302.507812 440.9375 302.820312 C 441 303.128906 441.09375 303.429688 441.210938 303.722656 C 441.332031 304.011719 441.480469 304.289062 441.65625 304.554688 C 441.832031 304.816406 442.03125 305.058594 442.257812 305.28125 C 442.480469 305.507812 442.722656 305.707031 442.984375 305.882812 C 443.246094 306.054688 443.523438 306.203125 443.816406 306.324219 C 444.109375 306.445312 444.410156 306.539062 444.71875 306.597656 C 445.03125 306.660156 445.34375 306.691406 445.660156 306.691406 L 535.835938 306.691406 C 536.148438 306.691406 536.464844 306.660156 536.773438 306.597656 C 537.082031 306.539062 537.382812 306.445312 537.675781 306.324219 C 537.96875 306.203125 538.246094 306.054688 538.507812 305.882812 C 538.769531 305.707031 539.011719 305.507812 539.238281 305.28125 C 539.460938 305.058594 539.660156 304.816406 539.835938 304.554688 C 540.011719 304.289062 540.160156 304.011719 540.28125 303.722656 C 540.402344 303.429688 540.492188 303.128906 540.554688 302.820312 C 540.613281 302.507812 540.644531 302.195312 540.644531 301.878906 L 540.644531 300.339844 C 540.644531 299.621094 540.574219 298.90625 540.433594 298.199219 C 540.292969 297.492188 540.085938 296.808594 539.8125 296.140625 C 539.535156 295.476562 539.195312 294.84375 538.796875 294.246094 C 538.398438 293.644531 537.941406 293.09375 537.433594 292.582031 C 536.921875 292.074219 536.367188 291.617188 535.769531 291.21875 C 535.171875 290.816406 534.539062 290.480469 533.875 290.203125 C 533.207031 289.929688 532.523438 289.71875 531.816406 289.578125 C 531.109375 289.4375 530.394531 289.367188 529.675781 289.367188 L 511.339844 289.367188 L 503.953125 276.089844 L 532.828125 276.089844 C 535.773438 278.554688 538.914062 280.746094 542.246094 282.660156 C 545.574219 284.578125 549.046875 286.191406 552.660156 287.503906 C 556.269531 288.8125 559.96875 289.800781 563.753906 290.464844 C 567.539062 291.132812 571.351562 291.464844 575.195312 291.460938 C 582.625 291.472656 589.84375 290.238281 596.847656 287.757812 L 600.554688 293.796875 C 599.484375 295.132812 598.746094 296.632812 598.339844 298.296875 C 597.960938 299.800781 597.882812 301.324219 598.105469 302.863281 C 598.332031 304.402344 598.84375 305.839844 599.640625 307.171875 L 623.917969 346.605469 C 624.234375 347.09375 624.574219 347.566406 624.9375 348.019531 C 625.300781 348.472656 625.683594 348.910156 626.089844 349.328125 C 626.492188 349.742188 626.917969 350.140625 627.359375 350.515625 C 627.804688 350.890625 628.265625 351.246094 628.742188 351.578125 C 629.21875 351.910156 629.710938 352.21875 630.21875 352.5 C 630.726562 352.785156 631.246094 353.042969 631.777344 353.277344 C 632.308594 353.511719 632.851562 353.71875 633.402344 353.902344 C 633.957031 354.082031 634.515625 354.238281 635.082031 354.363281 C 635.652344 354.492188 636.222656 354.59375 636.800781 354.664062 C 637.375 354.734375 637.957031 354.78125 638.535156 354.796875 C 639.117188 354.8125 639.699219 354.800781 640.277344 354.761719 C 640.859375 354.71875 641.433594 354.652344 642.007812 354.558594 C 642.582031 354.460938 643.148438 354.335938 643.710938 354.1875 C 644.273438 354.035156 644.824219 353.859375 645.371094 353.65625 C 645.914062 353.453125 646.445312 353.222656 646.96875 352.964844 C 647.492188 352.710938 648 352.429688 648.496094 352.125 C 648.988281 351.820312 649.46875 351.492188 649.933594 351.140625 C 650.394531 350.789062 650.839844 350.417969 651.269531 350.023438 C 651.695312 349.628906 652.105469 349.214844 652.492188 348.78125 C 652.878906 348.347656 653.242188 347.898438 653.585938 347.429688 C 653.929688 346.960938 654.25 346.476562 654.550781 345.976562 C 654.847656 345.476562 655.117188 344.964844 655.367188 344.4375 C 655.613281 343.910156 655.835938 343.375 656.03125 342.828125 C 656.226562 342.28125 656.394531 341.722656 656.535156 341.160156 C 656.679688 340.597656 656.792969 340.027344 656.878906 339.453125 C 656.964844 338.878906 657.023438 338.300781 657.054688 337.71875 C 657.085938 337.140625 657.089844 336.558594 657.0625 335.976562 C 657.039062 335.398438 656.984375 334.820312 656.90625 334.242188 C 656.824219 333.667969 656.714844 333.097656 656.578125 332.53125 C 656.441406 331.964844 656.28125 331.410156 656.089844 330.859375 C 655.898438 330.308594 655.683594 329.773438 655.441406 329.242188 C 655.199219 328.714844 654.933594 328.199219 654.640625 327.695312 Z M 529.601562 294.179688 C 530.007812 294.179688 530.40625 294.21875 530.804688 294.300781 C 531.199219 294.378906 531.585938 294.496094 531.960938 294.648438 C 532.332031 294.804688 532.6875 294.996094 533.023438 295.21875 C 533.359375 295.445312 533.671875 295.699219 533.957031 295.984375 C 534.242188 296.269531 534.5 296.582031 534.722656 296.917969 C 534.949219 297.253906 535.136719 297.609375 535.292969 297.984375 C 535.449219 298.355469 535.566406 298.742188 535.644531 299.140625 C 535.722656 299.535156 535.761719 299.9375 535.761719 300.339844 L 535.761719 301.878906 L 445.660156 301.878906 L 445.660156 300.339844 C 445.660156 299.9375 445.699219 299.535156 445.777344 299.140625 C 445.855469 298.742188 445.972656 298.355469 446.128906 297.984375 C 446.28125 297.609375 446.472656 297.253906 446.695312 296.917969 C 446.921875 296.582031 447.175781 296.269531 447.460938 295.984375 C 447.75 295.699219 448.058594 295.445312 448.394531 295.21875 C 448.730469 294.996094 449.085938 294.804688 449.460938 294.648438 C 449.835938 294.496094 450.21875 294.378906 450.617188 294.300781 C 451.011719 294.21875 451.414062 294.179688 451.816406 294.179688 L 529.699219 294.179688 Z M 475.660156 289.367188 L 483.046875 276.089844 L 498.347656 276.089844 L 505.808594 289.367188 Z M 409.6875 143.085938 L 571.898438 143.085938 C 572.6875 143.097656 573.464844 143.179688 574.238281 143.339844 C 575.007812 143.5 575.753906 143.734375 576.480469 144.039062 C 577.207031 144.34375 577.894531 144.71875 578.550781 145.15625 C 579.203125 145.597656 579.808594 146.09375 580.363281 146.652344 C 580.921875 147.207031 581.417969 147.8125 581.859375 148.464844 C 582.296875 149.121094 582.671875 149.808594 582.976562 150.535156 C 583.28125 151.261719 583.515625 152.007812 583.675781 152.78125 C 583.835938 153.550781 583.921875 154.328125 583.929688 155.117188 L 583.929688 156.511719 L 397.539062 156.511719 L 397.539062 155.308594 C 397.535156 154.507812 397.609375 153.714844 397.765625 152.929688 C 397.917969 152.144531 398.144531 151.382812 398.449219 150.640625 C 398.753906 149.898438 399.125 149.195312 399.570312 148.53125 C 400.011719 147.863281 400.515625 147.246094 401.078125 146.679688 C 401.644531 146.109375 402.257812 145.601562 402.921875 145.15625 C 403.585938 144.710938 404.289062 144.332031 405.027344 144.023438 C 405.765625 143.714844 406.527344 143.484375 407.3125 143.324219 C 408.097656 143.167969 408.890625 143.089844 409.6875 143.085938 Z M 397.539062 246.734375 L 397.539062 161.445312 L 561.53125 161.445312 C 557.570312 162.292969 553.722656 163.496094 549.984375 165.050781 C 546.242188 166.605469 542.675781 168.488281 539.28125 170.695312 C 535.886719 172.902344 532.722656 175.402344 529.785156 178.191406 C 526.847656 180.976562 524.1875 184.007812 521.808594 187.285156 L 483.121094 187.285156 L 483.121094 192.097656 L 518.65625 192.097656 C 517.449219 194.128906 516.351562 196.21875 515.371094 198.367188 C 514.386719 200.519531 513.523438 202.714844 512.777344 204.957031 C 512.027344 207.199219 511.40625 209.476562 510.902344 211.789062 C 510.402344 214.097656 510.023438 216.425781 509.773438 218.777344 C 509.519531 221.128906 509.394531 223.484375 509.398438 225.847656 C 509.398438 228.214844 509.527344 230.570312 509.785156 232.921875 C 510.039062 235.269531 510.417969 237.601562 510.925781 239.910156 C 511.429688 242.21875 512.058594 244.492188 512.808594 246.734375 Z M 561 284.992188 C 559.871094 284.722656 558.746094 284.421875 557.632812 284.085938 C 556.519531 283.753906 555.417969 283.390625 554.324219 282.992188 C 553.230469 282.597656 552.152344 282.167969 551.082031 281.710938 C 550.015625 281.253906 548.960938 280.761719 547.921875 280.246094 C 546.882812 279.726562 545.855469 279.179688 544.847656 278.601562 C 543.839844 278.023438 542.847656 277.417969 541.875 276.785156 C 540.898438 276.148438 539.945312 275.488281 539.007812 274.800781 C 538.074219 274.109375 537.15625 273.394531 536.261719 272.652344 C 535.367188 271.914062 534.492188 271.144531 533.640625 270.355469 C 532.789062 269.5625 531.960938 268.746094 531.15625 267.910156 C 530.351562 267.070312 529.574219 266.210938 528.816406 265.324219 C 528.0625 264.441406 527.332031 263.539062 526.628906 262.613281 C 525.925781 261.6875 525.25 260.742188 524.601562 259.777344 C 523.953125 258.816406 523.332031 257.832031 522.738281 256.832031 C 522.144531 255.832031 521.578125 254.816406 521.046875 253.785156 C 520.511719 252.753906 520.003906 251.707031 519.53125 250.648438 C 519.054688 249.585938 518.609375 248.511719 518.199219 247.425781 C 517.785156 246.339844 517.402344 245.242188 517.050781 244.136719 C 516.699219 243.027344 516.382812 241.910156 516.09375 240.78125 C 515.808594 239.65625 515.554688 238.523438 515.332031 237.382812 C 515.109375 236.242188 514.921875 235.09375 514.765625 233.941406 C 514.609375 232.792969 514.488281 231.636719 514.398438 230.476562 C 514.308594 229.316406 514.25 228.15625 514.226562 226.996094 C 514.203125 225.832031 514.214844 224.671875 514.257812 223.511719 C 514.300781 222.347656 514.375 221.191406 514.484375 220.03125 C 514.597656 218.875 514.738281 217.722656 514.914062 216.574219 C 515.089844 215.425781 515.296875 214.28125 515.539062 213.144531 C 515.78125 212.007812 516.054688 210.878906 516.359375 209.757812 C 516.664062 208.636719 517.003906 207.523438 517.371094 206.421875 C 517.742188 205.320312 518.144531 204.230469 518.574219 203.148438 C 519.007812 202.070312 519.46875 201.003906 519.960938 199.953125 C 520.453125 198.898438 520.976562 197.863281 521.53125 196.839844 C 522.082031 195.816406 522.664062 194.8125 523.273438 193.820312 C 523.882812 192.832031 524.523438 191.863281 525.1875 190.910156 C 525.851562 189.957031 526.546875 189.023438 527.265625 188.109375 C 527.984375 187.195312 528.730469 186.304688 529.5 185.433594 C 530.269531 184.5625 531.0625 183.714844 531.882812 182.890625 C 532.699219 182.066406 533.542969 181.265625 534.40625 180.488281 C 535.273438 179.710938 536.160156 178.960938 537.066406 178.234375 C 537.972656 177.507812 538.902344 176.808594 539.847656 176.136719 C 540.796875 175.464844 541.761719 174.820312 542.746094 174.199219 C 543.734375 173.582031 544.734375 172.996094 545.753906 172.433594 C 546.769531 171.875 547.804688 171.34375 548.855469 170.84375 C 549.902344 170.34375 550.964844 169.871094 552.039062 169.433594 C 553.117188 168.992188 554.203125 168.582031 555.304688 168.203125 C 556.402344 167.828125 557.511719 167.480469 558.628906 167.167969 C 559.75 166.851562 560.875 166.570312 562.011719 166.320312 C 563.148438 166.070312 564.289062 165.855469 565.4375 165.671875 C 566.582031 165.484375 567.734375 165.335938 568.890625 165.214844 C 570.046875 165.097656 571.207031 165.011719 572.367188 164.960938 C 573.527344 164.910156 574.691406 164.890625 575.851562 164.90625 C 577.015625 164.921875 578.175781 164.96875 579.335938 165.050781 C 580.496094 165.128906 581.652344 165.246094 582.804688 165.390625 C 583.957031 165.539062 585.105469 165.71875 586.246094 165.933594 C 587.390625 166.144531 588.527344 166.390625 589.652344 166.667969 C 590.78125 166.949219 591.902344 167.257812 593.011719 167.601562 C 594.125 167.941406 595.222656 168.316406 596.3125 168.722656 C 597.402344 169.128906 598.480469 169.5625 599.542969 170.03125 C 600.609375 170.496094 601.65625 170.996094 602.695312 171.519531 C 603.730469 172.046875 604.75 172.605469 605.753906 173.191406 C 606.757812 173.777344 607.746094 174.390625 608.714844 175.03125 C 609.683594 175.675781 610.632812 176.34375 611.5625 177.039062 C 612.492188 177.738281 613.402344 178.460938 614.292969 179.207031 C 615.179688 179.957031 616.046875 180.730469 616.890625 181.527344 C 617.738281 182.328125 618.558594 183.148438 619.355469 183.992188 C 620.152344 184.839844 620.925781 185.707031 621.675781 186.597656 C 622.421875 187.484375 623.144531 188.394531 623.839844 189.328125 C 624.535156 190.257812 625.207031 191.207031 625.847656 192.175781 C 626.488281 193.144531 627.101562 194.132812 627.6875 195.136719 C 628.269531 196.140625 628.828125 197.160156 629.355469 198.199219 C 629.878906 199.234375 630.375 200.285156 630.84375 201.351562 C 631.308594 202.414062 631.746094 203.492188 632.148438 204.582031 C 632.554688 205.671875 632.925781 206.769531 633.269531 207.882812 C 633.609375 208.992188 633.917969 210.113281 634.195312 211.242188 C 634.476562 212.371094 634.71875 213.503906 634.933594 214.648438 C 635.144531 215.792969 635.324219 216.9375 635.46875 218.09375 C 635.617188 219.246094 635.730469 220.402344 635.8125 221.5625 C 635.890625 222.71875 635.9375 223.882812 635.953125 225.042969 C 635.964844 226.207031 635.945312 227.367188 635.894531 228.527344 C 635.839844 229.691406 635.757812 230.847656 635.636719 232.003906 C 635.519531 233.160156 635.367188 234.3125 635.179688 235.460938 C 634.996094 236.609375 634.777344 237.75 634.527344 238.882812 C 634.277344 240.019531 633.996094 241.144531 633.679688 242.265625 C 633.363281 243.382812 633.019531 244.492188 632.640625 245.589844 C 632.261719 246.691406 631.851562 247.777344 631.410156 248.851562 C 630.96875 249.929688 630.5 250.992188 629.996094 252.039062 C 629.496094 253.085938 628.964844 254.121094 628.402344 255.140625 C 627.84375 256.15625 627.253906 257.15625 626.636719 258.140625 C 626.019531 259.125 625.371094 260.09375 624.699219 261.039062 C 624.023438 261.988281 623.324219 262.914062 622.597656 263.820312 C 621.871094 264.730469 621.121094 265.613281 620.34375 266.480469 C 619.566406 267.34375 618.765625 268.183594 617.9375 269.003906 C 617.113281 269.820312 616.265625 270.613281 615.394531 271.382812 C 614.523438 272.152344 613.628906 272.898438 612.71875 273.617188 C 611.804688 274.335938 610.871094 275.027344 609.917969 275.691406 C 608.964844 276.355469 607.992188 276.996094 607.003906 277.605469 C 603.601562 279.710938 600.03125 281.460938 596.285156 282.859375 C 592.539062 284.257812 588.691406 285.273438 584.742188 285.90625 C 580.792969 286.539062 576.820312 286.78125 572.824219 286.625 C 568.828125 286.472656 564.886719 285.925781 561 284.992188 Z M 609.527344 281.71875 L 611.117188 280.683594 L 613.667969 284.820312 L 604.210938 290.621094 L 601.371094 285.976562 C 604.1875 284.738281 606.90625 283.320312 609.527344 281.71875 Z M 646.269531 348.410156 C 645.527344 348.867188 644.753906 349.246094 643.9375 349.550781 C 643.125 349.851562 642.289062 350.070312 641.429688 350.210938 C 640.574219 350.347656 639.710938 350.402344 638.84375 350.367188 C 637.976562 350.335938 637.121094 350.21875 636.273438 350.019531 C 635.429688 349.816406 634.613281 349.535156 633.824219 349.171875 C 633.035156 348.8125 632.289062 348.375 631.585938 347.867188 C 630.882812 347.355469 630.234375 346.78125 629.644531 346.144531 C 629.054688 345.507812 628.53125 344.820312 628.078125 344.082031 L 603.828125 304.648438 C 603.339844 303.871094 603.023438 303.027344 602.875 302.121094 C 602.730469 301.214844 602.765625 300.316406 602.984375 299.425781 C 603.195312 298.53125 603.566406 297.710938 604.105469 296.960938 C 604.644531 296.214844 605.304688 295.601562 606.089844 295.121094 L 616.820312 288.527344 C 617.207031 288.28125 617.617188 288.074219 618.046875 287.90625 C 618.476562 287.742188 618.917969 287.621094 619.371094 287.542969 C 619.828125 287.464844 620.285156 287.433594 620.746094 287.449219 C 621.203125 287.464844 621.660156 287.523438 622.105469 287.628906 C 622.554688 287.734375 622.988281 287.882812 623.40625 288.074219 C 623.828125 288.269531 624.222656 288.5 624.59375 288.769531 C 624.964844 289.042969 625.308594 289.347656 625.621094 289.6875 C 625.929688 290.027344 626.203125 290.394531 626.441406 290.789062 L 650.597656 330.222656 C 651.054688 330.960938 651.429688 331.738281 651.730469 332.550781 C 652.035156 333.367188 652.253906 334.203125 652.390625 335.058594 C 652.527344 335.914062 652.578125 336.777344 652.546875 337.644531 C 652.511719 338.511719 652.398438 339.367188 652.195312 340.210938 C 651.996094 341.058594 651.714844 341.875 651.351562 342.664062 C 650.988281 343.453125 650.554688 344.199219 650.046875 344.902344 C 649.539062 345.605469 648.964844 346.25 648.328125 346.84375 C 647.695312 347.433594 647.007812 347.957031 646.269531 348.410156 Z M 646.269531 348.410156 " fill-opacity="1" fill-rule="nonzero"/></g><path fill="#ffffff" d="M 602.550781 203.667969 C 601.414062 204.007812 600.386719 204.550781 599.464844 205.296875 C 598.546875 206.042969 597.800781 206.933594 597.234375 207.976562 C 596.835938 208.714844 596.550781 209.492188 596.378906 210.3125 C 596.203125 211.132812 596.148438 211.960938 596.210938 212.796875 C 596.277344 213.632812 596.457031 214.441406 596.753906 215.226562 C 597.050781 216.011719 597.449219 216.738281 597.957031 217.40625 L 590.066406 227.609375 C 589.363281 227.308594 588.632812 227.105469 587.875 227.003906 C 587.117188 226.898438 586.359375 226.898438 585.601562 226.996094 C 584.847656 227.097656 584.113281 227.292969 583.410156 227.589844 C 582.707031 227.886719 582.054688 228.269531 581.449219 228.738281 L 572.308594 221.808594 C 572.542969 221.203125 572.710938 220.578125 572.808594 219.933594 C 572.90625 219.292969 572.933594 218.644531 572.890625 217.996094 C 572.84375 217.347656 572.730469 216.710938 572.546875 216.085938 C 572.359375 215.464844 572.109375 214.867188 571.792969 214.296875 C 571.476562 213.730469 571.101562 213.203125 570.671875 212.714844 C 570.238281 212.230469 569.757812 211.796875 569.230469 211.417969 C 568.703125 211.035156 568.136719 210.71875 567.539062 210.460938 C 566.941406 210.207031 566.324219 210.019531 565.683594 209.898438 C 565.042969 209.78125 564.398438 209.730469 563.75 209.753906 C 563.097656 209.777344 562.460938 209.867188 561.828125 210.03125 C 561.199219 210.195312 560.59375 210.425781 560.015625 210.722656 C 559.4375 211.019531 558.898438 211.375 558.398438 211.792969 C 557.898438 212.207031 557.449219 212.671875 557.050781 213.1875 C 556.652344 213.703125 556.316406 214.253906 556.039062 214.84375 C 555.761719 215.433594 555.554688 216.046875 555.414062 216.679688 C 555.273438 217.316406 555.203125 217.960938 555.203125 218.609375 C 555.207031 220.28125 555.65625 221.820312 556.550781 223.230469 L 549.113281 231.480469 C 547.875 230.847656 546.5625 230.527344 545.167969 230.519531 C 544.585938 230.511719 544.007812 230.5625 543.4375 230.671875 C 542.863281 230.777344 542.308594 230.941406 541.765625 231.160156 C 541.226562 231.375 540.710938 231.644531 540.222656 231.964844 C 539.738281 232.285156 539.285156 232.648438 538.871094 233.054688 C 538.453125 233.464844 538.082031 233.910156 537.753906 234.390625 C 537.425781 234.871094 537.148438 235.382812 536.921875 235.917969 C 536.695312 236.453125 536.519531 237.007812 536.402344 237.578125 C 536.285156 238.148438 536.222656 238.726562 536.21875 239.308594 C 536.214844 239.890625 536.269531 240.46875 536.378906 241.039062 C 536.488281 241.613281 536.652344 242.167969 536.871094 242.707031 C 537.089844 243.25 537.363281 243.761719 537.683594 244.246094 C 538.003906 244.734375 538.367188 245.183594 538.777344 245.597656 C 539.1875 246.011719 539.632812 246.382812 540.117188 246.710938 C 540.601562 247.035156 541.109375 247.3125 541.648438 247.535156 C 542.183594 247.761719 542.738281 247.933594 543.308594 248.050781 C 543.882812 248.164062 544.457031 248.222656 545.039062 248.226562 C 545.625 248.230469 546.199219 248.175781 546.773438 248.0625 C 547.34375 247.949219 547.898438 247.785156 548.4375 247.5625 C 548.976562 247.339844 549.488281 247.070312 549.976562 246.746094 C 550.460938 246.421875 550.910156 246.054688 551.320312 245.644531 C 551.734375 245.234375 552.101562 244.785156 552.429688 244.300781 C 552.753906 243.816406 553.027344 243.308594 553.25 242.769531 C 553.472656 242.230469 553.640625 241.675781 553.757812 241.105469 C 553.871094 240.53125 553.925781 239.957031 553.925781 239.375 C 553.929688 237.6875 553.480469 236.132812 552.578125 234.707031 L 560.183594 226.453125 C 561.417969 227.09375 562.734375 227.425781 564.128906 227.441406 C 566.109375 227.4375 567.882812 226.828125 569.445312 225.609375 L 578.636719 232.5625 C 578.503906 232.898438 578.390625 233.238281 578.300781 233.585938 C 578.210938 233.929688 578.140625 234.28125 578.09375 234.636719 C 578.042969 234.992188 578.019531 235.351562 578.015625 235.707031 C 578.007812 236.066406 578.027344 236.425781 578.066406 236.78125 C 578.105469 237.136719 578.167969 237.488281 578.25 237.839844 C 578.332031 238.1875 578.4375 238.53125 578.5625 238.867188 C 578.6875 239.203125 578.832031 239.53125 578.996094 239.847656 C 579.160156 240.167969 579.34375 240.472656 579.546875 240.769531 C 579.75 241.066406 579.96875 241.347656 580.207031 241.617188 C 580.441406 241.886719 580.695312 242.140625 580.964844 242.378906 C 581.230469 242.617188 581.511719 242.835938 581.808594 243.042969 C 582.105469 243.246094 582.410156 243.429688 582.726562 243.597656 C 583.046875 243.761719 583.371094 243.90625 583.707031 244.035156 C 584.042969 244.160156 584.386719 244.265625 584.734375 244.347656 C 585.082031 244.433594 585.4375 244.496094 585.792969 244.535156 C 586.148438 244.578125 586.507812 244.597656 586.863281 244.59375 C 587.210938 244.59375 587.550781 244.574219 587.894531 244.535156 C 588.238281 244.492188 588.574219 244.433594 588.910156 244.355469 C 589.246094 244.273438 589.574219 244.175781 589.898438 244.058594 C 590.222656 243.9375 590.539062 243.800781 590.84375 243.648438 C 591.152344 243.492188 591.449219 243.320312 591.738281 243.128906 C 592.027344 242.941406 592.300781 242.734375 592.566406 242.511719 C 592.828125 242.289062 593.078125 242.054688 593.3125 241.804688 C 593.550781 241.550781 593.769531 241.289062 593.976562 241.011719 C 594.179688 240.734375 594.371094 240.445312 594.539062 240.148438 C 594.710938 239.851562 594.867188 239.542969 595 239.226562 C 595.136719 238.910156 595.253906 238.585938 595.351562 238.253906 C 595.449219 237.925781 595.527344 237.589844 595.585938 237.25 C 595.644531 236.910156 595.683594 236.570312 595.703125 236.226562 C 595.722656 235.882812 595.71875 235.535156 595.699219 235.191406 C 595.679688 234.847656 595.636719 234.507812 595.574219 234.167969 C 595.515625 233.828125 595.433594 233.496094 595.332031 233.164062 C 595.027344 232.199219 594.570312 231.308594 593.960938 230.496094 L 601.855469 220.269531 C 602.902344 220.707031 603.992188 220.941406 605.125 220.96875 C 606.003906 220.972656 606.863281 220.84375 607.699219 220.582031 C 608.199219 220.371094 608.675781 220.113281 609.128906 219.816406 C 609.582031 219.515625 610 219.179688 610.390625 218.800781 C 610.78125 218.425781 611.132812 218.015625 611.449219 217.574219 C 611.765625 217.132812 612.035156 216.667969 612.265625 216.175781 C 612.496094 215.683594 612.679688 215.175781 612.8125 214.648438 C 612.949219 214.125 613.035156 213.589844 613.074219 213.050781 C 613.113281 212.507812 613.101562 211.96875 613.039062 211.429688 C 612.976562 210.890625 612.867188 210.363281 612.710938 209.84375 C 612.550781 209.324219 612.347656 208.824219 612.09375 208.34375 C 611.84375 207.863281 611.554688 207.40625 611.21875 206.980469 C 610.886719 206.554688 610.515625 206.160156 610.109375 205.800781 C 609.703125 205.441406 609.265625 205.121094 608.800781 204.84375 C 608.335938 204.5625 607.851562 204.328125 607.34375 204.136719 C 606.835938 203.949219 606.3125 203.804688 605.777344 203.710938 C 605.246094 203.617188 604.707031 203.574219 604.164062 203.578125 C 603.621094 203.582031 603.082031 203.636719 602.550781 203.742188 Z M 545.074219 243.414062 C 544.808594 243.414062 544.542969 243.390625 544.285156 243.335938 C 544.023438 243.285156 543.769531 243.210938 543.527344 243.109375 C 543.28125 243.007812 543.046875 242.882812 542.828125 242.734375 C 542.605469 242.585938 542.402344 242.417969 542.214844 242.230469 C 542.027344 242.042969 541.859375 241.839844 541.710938 241.617188 C 541.566406 241.398438 541.441406 241.164062 541.339844 240.921875 C 541.238281 240.675781 541.160156 240.421875 541.109375 240.160156 C 541.058594 239.902344 541.03125 239.636719 541.03125 239.375 C 541.03125 239.109375 541.058594 238.84375 541.109375 238.585938 C 541.160156 238.324219 541.238281 238.070312 541.339844 237.828125 C 541.441406 237.582031 541.566406 237.347656 541.710938 237.128906 C 541.859375 236.90625 542.027344 236.703125 542.214844 236.515625 C 542.402344 236.328125 542.605469 236.160156 542.828125 236.011719 C 543.046875 235.863281 543.28125 235.742188 543.527344 235.640625 C 543.769531 235.539062 544.023438 235.460938 544.285156 235.410156 C 544.542969 235.355469 544.808594 235.332031 545.074219 235.332031 C 545.339844 235.332031 545.601562 235.355469 545.863281 235.410156 C 546.121094 235.460938 546.375 235.539062 546.621094 235.640625 C 546.863281 235.742188 547.097656 235.863281 547.320312 236.011719 C 547.539062 236.160156 547.742188 236.328125 547.929688 236.515625 C 548.117188 236.703125 548.285156 236.90625 548.433594 237.128906 C 548.582031 237.347656 548.707031 237.582031 548.808594 237.828125 C 548.910156 238.070312 548.984375 238.324219 549.039062 238.585938 C 549.089844 238.84375 549.113281 239.109375 549.113281 239.375 C 549.113281 239.910156 549.007812 240.421875 548.800781 240.917969 C 548.59375 241.410156 548.300781 241.847656 547.925781 242.222656 C 547.546875 242.601562 547.109375 242.894531 546.617188 243.101562 C 546.121094 243.308594 545.609375 243.410156 545.074219 243.414062 Z M 564.128906 222.675781 C 563.863281 222.675781 563.601562 222.648438 563.339844 222.597656 C 563.078125 222.546875 562.828125 222.46875 562.582031 222.367188 C 562.335938 222.265625 562.101562 222.140625 561.882812 221.996094 C 561.660156 221.847656 561.457031 221.679688 561.269531 221.492188 C 561.082031 221.304688 560.914062 221.101562 560.765625 220.878906 C 560.621094 220.660156 560.496094 220.425781 560.394531 220.179688 C 560.292969 219.933594 560.214844 219.683594 560.164062 219.421875 C 560.113281 219.160156 560.085938 218.898438 560.085938 218.632812 C 560.085938 218.367188 560.113281 218.105469 560.164062 217.84375 C 560.214844 217.585938 560.292969 217.332031 560.394531 217.085938 C 560.496094 216.839844 560.621094 216.609375 560.765625 216.386719 C 560.914062 216.167969 561.082031 215.964844 561.269531 215.777344 C 561.457031 215.589844 561.660156 215.421875 561.882812 215.273438 C 562.101562 215.125 562.335938 215 562.582031 214.898438 C 562.828125 214.796875 563.078125 214.722656 563.339844 214.667969 C 563.601562 214.617188 563.863281 214.589844 564.128906 214.589844 C 564.394531 214.589844 564.65625 214.617188 564.917969 214.667969 C 565.175781 214.722656 565.429688 214.796875 565.675781 214.898438 C 565.921875 215 566.152344 215.125 566.375 215.273438 C 566.59375 215.421875 566.796875 215.589844 566.988281 215.777344 C 567.175781 215.964844 567.339844 216.167969 567.488281 216.386719 C 567.636719 216.609375 567.761719 216.839844 567.863281 217.085938 C 567.964844 217.332031 568.039062 217.585938 568.09375 217.84375 C 568.144531 218.105469 568.171875 218.367188 568.171875 218.632812 C 568.171875 218.898438 568.144531 219.160156 568.09375 219.421875 C 568.039062 219.683594 567.964844 219.933594 567.863281 220.179688 C 567.761719 220.425781 567.636719 220.660156 567.488281 220.878906 C 567.339844 221.101562 567.175781 221.304688 566.984375 221.492188 C 566.796875 221.679688 566.59375 221.847656 566.375 221.996094 C 566.152344 222.140625 565.921875 222.265625 565.675781 222.367188 C 565.429688 222.46875 565.175781 222.546875 564.917969 222.597656 C 564.65625 222.648438 564.394531 222.675781 564.128906 222.675781 Z M 588.042969 239.660156 C 587.789062 239.742188 587.53125 239.792969 587.265625 239.824219 C 587.003906 239.851562 586.738281 239.851562 586.472656 239.828125 C 586.210938 239.804688 585.949219 239.753906 585.695312 239.679688 C 585.441406 239.605469 585.195312 239.503906 584.960938 239.382812 C 584.726562 239.257812 584.503906 239.113281 584.296875 238.945312 C 584.089844 238.777344 583.902344 238.59375 583.734375 238.390625 C 583.5625 238.183594 583.414062 237.96875 583.289062 237.734375 C 583.160156 237.5 583.058594 237.257812 582.980469 237.003906 C 582.898438 236.75 582.847656 236.492188 582.820312 236.226562 C 582.789062 235.960938 582.789062 235.699219 582.8125 235.433594 C 582.835938 235.167969 582.886719 234.910156 582.960938 234.65625 C 583.035156 234.402344 583.136719 234.15625 583.257812 233.921875 C 583.382812 233.683594 583.527344 233.464844 583.695312 233.257812 C 583.863281 233.050781 584.046875 232.863281 584.25 232.691406 C 584.457031 232.523438 584.675781 232.375 584.90625 232.246094 C 585.140625 232.121094 585.382812 232.019531 585.636719 231.9375 C 586.019531 231.8125 586.414062 231.75 586.816406 231.746094 C 587.304688 231.742188 587.773438 231.824219 588.230469 231.992188 C 588.6875 232.160156 589.101562 232.402344 589.472656 232.71875 C 589.839844 233.035156 590.144531 233.40625 590.378906 233.832031 C 590.613281 234.257812 590.765625 234.710938 590.839844 235.191406 C 590.910156 235.675781 590.894531 236.152344 590.792969 236.628906 C 590.695312 237.105469 590.511719 237.546875 590.25 237.957031 C 589.988281 238.367188 589.664062 238.71875 589.277344 239.011719 C 588.890625 239.308594 588.460938 239.523438 587.996094 239.660156 Z M 606.304688 216.058594 C 605.234375 216.378906 604.207031 216.277344 603.226562 215.746094 C 602.226562 215.226562 601.566406 214.421875 601.253906 213.339844 C 600.933594 212.261719 601.035156 211.230469 601.566406 210.238281 C 602.097656 209.253906 602.898438 208.601562 603.972656 208.289062 C 604.355469 208.167969 604.746094 208.101562 605.148438 208.09375 C 605.632812 208.101562 606.097656 208.191406 606.550781 208.363281 C 607 208.539062 607.40625 208.78125 607.769531 209.101562 C 608.132812 209.417969 608.429688 209.789062 608.664062 210.210938 C 608.894531 210.636719 609.042969 211.085938 609.117188 211.5625 C 609.1875 212.042969 609.171875 212.515625 609.074219 212.988281 C 608.976562 213.460938 608.800781 213.902344 608.542969 214.3125 C 608.289062 214.722656 607.972656 215.074219 607.589844 215.371094 C 607.210938 215.667969 606.789062 215.890625 606.328125 216.035156 Z M 606.304688 216.058594 " fill-opacity="1" fill-rule="nonzero"/><path fill="#ffffff" d="M 410.605469 152.347656 C 410.921875 152.347656 411.230469 152.289062 411.523438 152.167969 C 411.820312 152.042969 412.078125 151.871094 412.304688 151.644531 C 412.53125 151.417969 412.703125 151.160156 412.828125 150.863281 C 412.949219 150.570312 413.007812 150.261719 413.007812 149.945312 C 413.007812 149.625 412.949219 149.316406 412.828125 149.023438 C 412.703125 148.726562 412.53125 148.46875 412.304688 148.242188 C 412.078125 148.015625 411.820312 147.84375 411.523438 147.722656 C 411.230469 147.597656 410.921875 147.539062 410.605469 147.539062 C 410.285156 147.539062 409.976562 147.597656 409.683594 147.722656 C 409.386719 147.84375 409.128906 148.015625 408.902344 148.242188 C 408.675781 148.46875 408.503906 148.726562 408.378906 149.023438 C 408.257812 149.316406 408.199219 149.625 408.199219 149.945312 C 408.199219 150.261719 408.257812 150.570312 408.378906 150.863281 C 408.503906 151.160156 408.675781 151.417969 408.902344 151.644531 C 409.128906 151.871094 409.386719 152.042969 409.683594 152.167969 C 409.976562 152.289062 410.285156 152.347656 410.605469 152.347656 Z M 410.605469 152.347656 " fill-opacity="1" fill-rule="nonzero"/><path fill="#ffffff" d="M 420.347656 152.347656 C 420.667969 152.347656 420.972656 152.289062 421.269531 152.167969 C 421.5625 152.042969 421.824219 151.871094 422.050781 151.644531 C 422.273438 151.417969 422.449219 151.160156 422.570312 150.863281 C 422.691406 150.570312 422.753906 150.261719 422.753906 149.945312 C 422.753906 149.625 422.691406 149.316406 422.570312 149.023438 C 422.449219 148.726562 422.273438 148.46875 422.050781 148.242188 C 421.824219 148.015625 421.5625 147.84375 421.269531 147.722656 C 420.972656 147.597656 420.667969 147.539062 420.347656 147.539062 C 420.027344 147.539062 419.722656 147.597656 419.425781 147.722656 C 419.132812 147.84375 418.871094 148.015625 418.648438 148.242188 C 418.421875 148.46875 418.246094 148.726562 418.125 149.023438 C 418.003906 149.316406 417.941406 149.625 417.941406 149.945312 C 417.941406 150.261719 418.003906 150.570312 418.125 150.863281 C 418.246094 151.160156 418.421875 151.417969 418.648438 151.644531 C 418.871094 151.871094 419.132812 152.042969 419.425781 152.167969 C 419.722656 152.289062 420.027344 152.347656 420.347656 152.347656 Z M 420.347656 152.347656 " fill-opacity="1" fill-rule="nonzero"/></svg>